<svg xmlns="http://www.w3.org/2000/svg" width="18.004" height="18.005" viewBox="0 0 18.004 18.005">
  <g id="グループ_5913" data-name="グループ 5913" transform="translate(2.004 7.002)">
    <g id="合体_2" data-name="合体 2" transform="translate(-7060 -13740)" fill="none">
      <path d="M7060,13751h-2v-14h4v-4h14v14h-14v-8h-2v10h11v-2h2v4Z" stroke="none"/>
      <path d="M 7074.00048828125 13744.9990234375 L 7074.00048828125 13734.998046875 L 7063.99951171875 13734.998046875 L 7063.99951171875 13744.9990234375 L 7074.00048828125 13744.9990234375 M 7073.00146484375 13751.0029296875 L 7057.99609375 13751.0029296875 L 7057.99609375 13736.998046875 L 7061.99951171875 13736.998046875 L 7061.99951171875 13732.998046875 L 7076.00048828125 13732.998046875 L 7076.00048828125 13746.9990234375 L 7061.99951171875 13746.9990234375 L 7061.99951171875 13738.99609375 L 7059.99755859375 13738.99609375 L 7059.99755859375 13749.0009765625 L 7070.99951171875 13749.0009765625 L 7070.99951171875 13746.9990234375 L 7073.00146484375 13746.9990234375 L 7073.00146484375 13751.0029296875 Z" stroke="none" fill="#666"/>
    </g>
  </g>
</svg>
