<svg width="138" height="18" viewBox="0 0 138 18" fill="none" xmlns="http://www.w3.org/2000/svg">
<g clip-path="url(#clip0_8_1816)">
<path d="M9.45996 3.03489C11.7111 7.27896 13.2406 11.8679 13.9859 16.6139L15.8549 16.1629C15.0378 11.3009 13.4116 6.61028 11.0439 2.28589L9.45996 3.03489Z" fill="#53565A"/>
<path d="M0 16.0641L1.65704 16.9521C2.90304 14.9711 5.521 10.7891 6.448 2.63707L4.65802 2.37207C3.75802 9.95407 1.564 13.6321 0 16.0641Z" fill="#53565A"/>
<path d="M15.3169 5.95695e-06C14.7111 0.00120232 14.1244 0.21239 13.6568 0.597595C13.1892 0.9828 12.8697 1.5182 12.7525 2.11259C12.6354 2.70698 12.7279 3.3236 13.0144 3.85741C13.3009 4.39123 13.7635 4.80922 14.3236 5.04019C14.8837 5.27116 15.5065 5.30083 16.0859 5.12413C16.6654 4.94743 17.1658 4.5753 17.5017 4.07113C17.8376 3.56695 17.9883 2.96192 17.9282 2.35909C17.868 1.75625 17.6008 1.19291 17.1719 0.765007C16.9282 0.521775 16.6389 0.329005 16.3206 0.197735C16.0023 0.0664648 15.6612 -0.000728528 15.3169 5.95695e-06ZM15.3169 4.06901C15.1201 4.07935 14.9232 4.04951 14.7383 3.98131C14.5534 3.91311 14.3843 3.80798 14.2413 3.67232C14.0984 3.53665 13.9845 3.37331 13.9067 3.19222C13.8289 3.01113 13.7887 2.8161 13.7887 2.61901C13.7887 2.42191 13.8289 2.22688 13.9067 2.04579C13.9845 1.86471 14.0984 1.70136 14.2413 1.5657C14.3843 1.43004 14.5534 1.3249 14.7383 1.2567C14.9232 1.1885 15.1201 1.15867 15.3169 1.16901C15.5137 1.15867 15.7106 1.1885 15.8955 1.2567C16.0804 1.3249 16.2495 1.43004 16.3925 1.5657C16.5355 1.70136 16.6494 1.86471 16.7272 2.04579C16.805 2.22688 16.8451 2.42191 16.8451 2.61901C16.8451 2.8161 16.805 3.01113 16.7272 3.19222C16.6494 3.37331 16.5355 3.53665 16.3925 3.67232C16.2495 3.80798 16.0804 3.91311 15.8955 3.98131C15.7106 4.04951 15.5137 4.07935 15.3169 4.06901Z" fill="#53565A"/>
<path d="M34.8996 8.35205H18.6826V10.141H34.8996V8.35205Z" fill="#53565A"/>
<path d="M41.1527 8.03191C40.2347 6.18308 39.0561 4.47565 37.6527 2.96191L36.1797 3.7909C37.5198 5.36106 38.6432 7.10395 39.5198 8.97291L41.1527 8.03191Z" fill="#53565A"/>
<path d="M37.582 15.8189L38.6749 17.3299C47.5749 15.0829 49.7089 8.54193 50.8959 2.80993L49.0069 2.47192C47.7679 9.44392 45.051 14.1719 37.582 15.8189Z" fill="#53565A"/>
<path d="M60.9755 15.103V1.74902H59.2754V17.191C65.9484 16.608 67.5004 12.291 68.3274 8.51602L66.7274 7.84102C65.7044 13.649 63.2915 14.387 60.9755 15.103Z" fill="#53565A"/>
<path d="M54.54 7.01202C54.54 12.029 53.426 14.176 51.332 16.27L52.5781 17.536C54.5191 15.647 56.216 12.97 56.216 6.88002V2.28003H54.539L54.54 7.01202Z" fill="#53565A"/>
<path d="M90.2086 9.55605L82.9856 10.2611L82.5946 6.41106L88.7947 5.82806L88.6616 4.20406L82.4187 4.78706L82.0616 1.48706L80.3056 1.63905L80.6637 4.95905L74.5206 5.54205L74.6526 7.16605L80.8367 6.58305L81.2367 10.4071L74.0127 11.1071L74.1456 12.7071L81.4026 12.0321L82.0027 17.6521L83.7586 17.5591L83.1587 11.8591L90.3226 11.1841L90.2086 9.55605Z" fill="#53565A"/>
<path d="M97.2532 4.39795L95.6892 4.57094L96.2002 7.75795L92.4502 8.30994L92.6502 9.78295L96.4212 9.21995L97.7002 17.4969L99.3002 17.3249L97.9612 8.97694L103.561 8.12894C103.345 9.03952 102.944 9.89595 102.383 10.6449C101.822 11.394 101.113 12.0196 100.3 12.4829L101.466 13.5959C102.637 12.7958 103.601 11.7291 104.279 10.4837C104.957 9.23823 105.33 7.84955 105.366 6.43194L97.7312 7.53194L97.2532 4.39795Z" fill="#53565A"/>
<path d="M117.423 9.91406C117.423 14.7261 113.805 15.5541 108.707 15.7991L109.217 17.4431C114.029 17.1361 119.192 16.1041 119.192 9.80806V1.78906H117.423V9.91406Z" fill="#53565A"/>
<path d="M109.575 2.09399H107.839V12.221H109.575V2.09399Z" fill="#53565A"/>
<path d="M122.24 15.6579L123.393 17.0699C129.504 14.1269 129.793 9.24294 129.821 5.58494L128.065 5.56494C128.086 9.76394 127.422 13.4379 122.24 15.6579Z" fill="#53565A"/>
<path d="M121.895 2.33911V3.96312H135.322C134.905 5.45412 134.116 7.31612 130.457 8.82712L131.551 10.1851C133.983 8.93911 136.734 7.33511 137.469 2.33911H121.895Z" fill="#53565A"/>
</g>
<defs>
<clipPath id="clip0_8_1816">
<rect width="138" height="18" fill="white"/>
</clipPath>
</defs>
</svg>
