<svg width="28" height="31" viewBox="0 0 28 31" fill="none" xmlns="http://www.w3.org/2000/svg">
<path d="M12.4976 18.788H23.2076V0H16.6346V12.207H11.9346L12.4976 18.788Z" fill="white"/>
<path d="M11.0009 6.574H15.6929L15.1299 0H4.41992V24.421H11.0009V6.574Z" fill="white"/>
<path d="M21.4264 26.403C20.9782 26.4086 20.5457 26.5693 20.2026 26.8577C19.8594 27.1461 19.6267 27.5445 19.544 27.9851C19.4613 28.4257 19.5338 28.8813 19.7491 29.2745C19.9644 29.6677 20.3092 29.9742 20.7249 30.1419C21.1406 30.3097 21.6016 30.3282 22.0294 30.1945C22.4573 30.0608 22.8257 29.783 23.0719 29.4084C23.3181 29.0338 23.427 28.5855 23.3801 28.1397C23.3331 27.6939 23.1333 27.2781 22.8144 26.963C22.6316 26.7825 22.4148 26.64 22.1766 26.5439C21.9383 26.4478 21.6833 26.3999 21.4264 26.403ZM21.4264 29.677C21.1607 29.6878 20.8978 29.6188 20.6716 29.479C20.4454 29.3392 20.2662 29.1349 20.157 28.8924C20.0478 28.6499 20.0136 28.3803 20.0589 28.1182C20.1041 27.8562 20.2267 27.6137 20.4109 27.4218C20.5951 27.23 20.8325 27.0976 21.0925 27.0418C21.3525 26.9859 21.6233 27.0092 21.87 27.1084C22.1167 27.2077 22.3281 27.3785 22.477 27.5988C22.6258 27.8192 22.7054 28.0791 22.7054 28.345C22.7113 28.6908 22.5801 29.0249 22.3405 29.2743C22.1008 29.5237 21.7722 29.6681 21.4264 29.676V29.677Z" fill="white"/>
<path d="M5.48555 28.6239H7.36055V28.0239H5.48555V27.0629H7.58555V26.4629H4.81055V30.2209H7.62755V29.6209H5.48555V28.6239Z" fill="white"/>
<path d="M26.058 29.6239V26.4629H25.375V30.2209H28.006V29.6209L26.058 29.6239Z" fill="white"/>
<path d="M1.484 26.4621H0V30.2201H0.675V29.0201H1.484C1.66155 29.0321 1.83971 29.0083 2.00788 28.9501C2.17605 28.8919 2.33079 28.8004 2.4629 28.6812C2.595 28.562 2.70178 28.4174 2.77687 28.2561C2.85196 28.0947 2.89384 27.9199 2.9 27.7421C2.9075 27.5604 2.87497 27.3794 2.80473 27.2118C2.73448 27.0441 2.62824 26.8939 2.49352 26.7719C2.35879 26.6499 2.19889 26.5589 2.02513 26.5056C1.85137 26.4522 1.66799 26.4377 1.488 26.4631L1.484 26.4621ZM1.423 28.4171H0.675V27.0701H1.424C1.981 27.0701 2.232 27.3771 2.232 27.7451C2.232 28.1131 1.941 28.4201 1.424 28.4201L1.423 28.4171Z" fill="white"/>
<path d="M12.8541 27.7421C12.8616 27.5604 12.8291 27.3794 12.7588 27.2118C12.6886 27.0441 12.5823 26.8939 12.4476 26.7719C12.3129 26.6499 12.153 26.5589 11.9792 26.5056C11.8055 26.4522 11.6221 26.4377 11.4421 26.4631H9.9541V30.2211H10.6291V29.0211H11.3661L12.2081 30.2211H12.9971L12.0691 28.8961C12.3002 28.8041 12.4985 28.645 12.6384 28.4393C12.7783 28.2336 12.8534 27.9908 12.8541 27.7421ZM11.3891 28.4171H10.6401V27.0701H11.3891C11.9461 27.0701 12.1971 27.3771 12.1971 27.7451C12.1971 28.1131 11.9021 28.4171 11.3851 28.4171H11.3891Z" fill="white"/>
<path d="M17.2638 28.3111C16.9892 28.1583 16.6917 28.0509 16.3828 27.9931C15.7398 27.8341 15.6408 27.7151 15.6408 27.5021C15.6408 27.1771 15.9588 27.0311 16.2708 27.0311C16.6402 27.0448 16.9974 27.1669 17.2978 27.3821C17.4179 27.4602 17.5271 27.5536 17.6228 27.6601V26.8311C17.2255 26.5559 16.756 26.4036 16.2728 26.3931C16.1166 26.3776 15.9588 26.3941 15.8091 26.4418C15.6595 26.4894 15.5212 26.5671 15.4026 26.6701C15.2841 26.7731 15.1878 26.8992 15.1198 27.0407C15.0517 27.1823 15.0133 27.3362 15.0068 27.4931C15.0068 28.2931 15.7748 28.4871 16.2348 28.5931C16.9438 28.7721 17.1098 28.8781 17.1098 29.1761C17.1135 29.2408 17.0993 29.3052 17.069 29.3625C17.0387 29.4198 16.9934 29.4677 16.9378 29.5011C16.7562 29.5958 16.5523 29.6394 16.3478 29.6271C15.8596 29.5868 15.3984 29.3865 15.0358 29.0571V29.8571C15.0498 29.8641 15.0558 29.8701 15.0688 29.8771C15.4548 30.1158 15.8947 30.2534 16.3478 30.2771C17.2068 30.2771 17.7478 29.8601 17.7478 29.1901C17.7536 29.0136 17.7117 28.8388 17.6266 28.6841C17.5414 28.5294 17.4161 28.4006 17.2638 28.3111Z" fill="white"/>
</svg>
