<svg id="レイヤー_1" data-name="レイヤー 1" xmlns="http://www.w3.org/2000/svg" viewBox="0 0 39.77 11.52"><defs><style>.cls-1{isolation:isolate;}.cls-2{fill:#666;}</style></defs><g id="LOGO" class="cls-1"><g class="cls-1"><path class="cls-2" d="M196.71.21h2.22V9.45h4.5v1.86h-6.72Z" transform="translate(-196.71)"/><path class="cls-2" d="M204.24,5.71c0-3.61,2-5.71,5-5.71s5,2.12,5,5.71-2,5.81-5,5.81S204.24,9.31,204.24,5.71Zm7.66,0c0-2.38-1.05-3.8-2.7-3.8s-2.7,1.42-2.7,3.8,1.05,3.89,2.7,3.89S211.9,8.08,211.9,5.71Z" transform="translate(-196.71)"/><path class="cls-2" d="M215.79,5.8c0-3.66,2.37-5.8,5.32-5.8a4.69,4.69,0,0,1,3.44,1.42l-1.19,1.41a2.92,2.92,0,0,0-2.17-.92c-1.85,0-3.14,1.43-3.14,3.82s1.11,3.87,3.29,3.87a2.21,2.21,0,0,0,1.39-.42V7h-2V5.17h3.94v5a5.2,5.2,0,0,1-3.6,1.34C218.08,11.52,215.79,9.51,215.79,5.8Z" transform="translate(-196.71)"/><path class="cls-2" d="M226.54,5.71c0-3.61,2-5.71,5-5.71s5,2.12,5,5.71-2,5.81-5,5.81S226.54,9.31,226.54,5.71Zm7.67,0c0-2.38-1.05-3.8-2.7-3.8s-2.7,1.42-2.7,3.8,1.05,3.89,2.7,3.89S234.21,8.08,234.21,5.71Z" transform="translate(-196.71)"/></g></g></svg>