<svg id="レイヤー_1" data-name="レイヤー 1" xmlns="http://www.w3.org/2000/svg" viewBox="0 0 39.77 11.52"><defs><style>.cls-1{fill:#fff;}</style></defs><g id="LOGO"><path class="cls-1" d="M0,.21H2.22V9.45h4.5v1.86H0Z"/><path class="cls-1" d="M7.53,5.71c0-3.61,2-5.71,5-5.71s5,2.12,5,5.71-2,5.81-5,5.81S7.53,9.31,7.53,5.71Zm7.66,0c0-2.38-1-3.8-2.7-3.8s-2.7,1.42-2.7,3.8,1.05,3.89,2.7,3.89,2.7-1.52,2.7-3.89Z"/><path class="cls-1" d="M19.08,5.8c0-3.66,2.37-5.8,5.32-5.8a4.69,4.69,0,0,1,3.44,1.42L26.65,2.83a2.92,2.92,0,0,0-2.17-.92c-1.85,0-3.14,1.43-3.14,3.82S22.45,9.6,24.63,9.6A2.22,2.22,0,0,0,26,9.18V7H24V5.17H28v5a5.2,5.2,0,0,1-3.6,1.34C21.37,11.52,19.08,9.51,19.08,5.8Z"/><path class="cls-1" d="M29.83,5.71c0-3.61,2-5.71,5-5.71s5,2.12,5,5.71-2,5.81-5,5.81S29.83,9.31,29.83,5.71Zm7.67,0c0-2.38-1-3.8-2.7-3.8s-2.7,1.42-2.7,3.8,1,3.89,2.7,3.89,2.7-1.52,2.7-3.89Z"/></g></svg>